<?xml version="1.0" encoding="utf-8"?>
<!-- Generator: Adobe Illustrator 22.1.0, SVG Export Plug-In . SVG Version: 6.00 Build 0)  -->
<svg version="1.1" id="Layer_1" xmlns="http://www.w3.org/2000/svg" xmlns:xlink="http://www.w3.org/1999/xlink" x="0px" y="0px"
	 viewBox="0 0 295 69.3" style="enable-background:new 0 0 295 69.3;" xml:space="preserve">
<style type="text/css">
	.st0{fill:#DD1954;}
	.st1{fill:#B30000;}
	.st2{fill:#E4170D;}
	.st3{fill:#990000;}
	.st4{fill:#CC0000;}
	.st5{fill:#E2136E;}
	.st6{font-family:'Georgia';}
	.st7{font-size:31px;}
</style>
<g id="logo" transform="translate(-433.033 -27)">
	<g id="Group_84" transform="translate(433.033 27)">
		<g id="Group_82" transform="translate(0 25.172)">
			<path id="Path_193" d="M1.3,4.7c0-0.8-0.1-1.6-0.3-2.3C0.9,1.7,0.5,1.1,0,0.7L4.3,0v12.6c0,0.1,0,0.2,0.1,0.2c0,0,0,0,0.1,0
				c0.1,0,0.3-0.2,0.6-0.5c0.4-0.4,0.7-0.7,1.1-1.1c0.5-0.4,1.1-0.8,1.7-1.1c0.7-0.3,1.5-0.5,2.2-0.5c1.1,0,2.1,0.3,3,0.9
				c0.8,0.6,1.5,1.3,2,2.2c0.5,0.9,0.9,1.9,1.1,3c0.2,1.1,0.3,2.1,0.3,3.2c0,1.3-0.2,2.6-0.5,3.8c-0.3,1.1-0.8,2.2-1.5,3.2
				c-0.7,0.9-1.6,1.7-2.6,2.2c-1.2,0.6-2.5,0.8-3.8,0.8c-0.6,0-1.2,0-1.8-0.1c-0.5-0.1-1-0.1-1.6-0.2s-1.1-0.2-1.6-0.2
				c-0.6-0.1-1.3-0.1-1.9-0.1c0-1.7,0.1-3.4,0.1-5c0-1.7,0-3.4,0-5.1L1.3,4.7z M13,17c-0.1-0.9-0.4-1.7-0.8-2.5
				c-0.3-0.7-0.8-1.3-1.4-1.8c-0.6-0.5-1.4-0.7-2.1-0.7c-1.3,0-2.5,0.6-3.3,1.7c-0.8,1.4-1.2,3-1.1,4.6v3.1c0,0.8,0,1.5,0.1,2.3
				c0.1,0.7,0.2,1.3,0.5,1.9c0.3,0.5,0.7,1,1.2,1.3c0.7,0.4,1.4,0.5,2.2,0.5c0.9,0,1.8-0.2,2.5-0.8c0.7-0.5,1.2-1.1,1.5-1.9
				c0.4-0.8,0.6-1.6,0.8-2.5c0.1-0.9,0.2-1.7,0.2-2.6C13.3,18.7,13.2,17.8,13,17z"/>
			<path id="Path_194" d="M21.4,7.8c0-0.9,0-1.8-0.1-2.8c0-0.9-0.3-1.7-0.8-2.5h5.4c-0.5,0.7-0.7,1.6-0.8,2.5C25.1,6,25,6.9,25,7.8
				v6.3c0.6-0.1,1.1-0.3,1.5-0.7c0.6-0.4,1.1-0.9,1.6-1.4c0.6-0.5,1.1-1.1,1.6-1.7c0.5-0.6,1-1.2,1.6-1.8c1.1-1.3,2-2.3,2.6-3.2
				c0.5-0.5,0.8-1.2,1-2V2.9c0-0.1,0-0.2,0-0.3h5c-0.9,0.8-1.8,1.6-2.6,2.3c-0.9,0.8-1.7,1.6-2.5,2.5l-6.2,6.8l6.6,9.5
				c0.5,0.8,1.1,1.6,1.8,2.4c0.6,0.8,1.3,1.5,1.9,2.2h-4.2c-0.3,0-0.6-0.1-0.9-0.3c-0.2-0.2-0.5-0.5-0.6-0.8l-7.2-10.9
				c-0.1-0.1-0.2-0.3-0.3-0.4c-0.1-0.1-0.2-0.2-0.3-0.2c-0.1,0-0.1,0-0.1,0.1c0,0,0,0,0,0c0,0.1,0,0.2,0,0.2v7c0,0.9,0,1.8,0.1,2.8
				c0,0.9,0.3,1.7,0.8,2.5h-5.4c0.5-0.7,0.8-1.6,0.8-2.5c0.1-1,0.1-1.9,0.1-2.8L21.4,7.8z"/>
			<path id="Path_195" d="M50.8,28.5c-0.2-0.6-0.3-1.2-0.3-1.8c0-0.5-0.1-0.7-0.3-0.7c-0.1,0-0.1,0-0.2,0L50,26.1l-0.8,1.1
				c-0.3,0.3-0.6,0.6-0.9,0.9c-0.4,0.3-0.8,0.5-1.2,0.6c-0.6,0.2-1.2,0.2-1.8,0.2c-1.3,0-2.5-0.4-3.5-1.1c-1-0.8-1.5-2.1-1.4-3.3
				c0-0.8,0.2-1.6,0.8-2.3c0.5-0.6,1.1-1.2,1.8-1.7c0.7-0.5,1.5-0.9,2.4-1.3c0.9-0.4,1.6-0.7,2.3-1c0.6-0.3,1-0.5,1.4-0.7
				c0.3-0.2,0.6-0.4,0.9-0.7c0.2-0.3,0.4-0.6,0.4-0.9c0.1-0.5,0.1-1,0.1-1.5c0-0.9-0.2-1.8-0.7-2.5c-1.2-1.2-3-1.4-4.4-0.5
				c-0.4,0.4-0.7,0.8-0.9,1.3c-0.2,0.5-0.4,0.9-0.7,1.3c-0.3,0.4-0.8,0.6-1.3,0.6c-0.4,0-0.8-0.1-1.1-0.3c-0.3-0.3-0.4-0.7-0.4-1.1
				c0-0.6,0.2-1.3,0.7-1.7c0.5-0.5,1.1-0.9,1.7-1.1c0.7-0.3,1.5-0.5,2.3-0.6c0.8-0.1,1.6-0.2,2.4-0.2c0.7,0,1.4,0,2,0.1
				c0.6,0.1,1.1,0.3,1.7,0.5c0.5,0.2,0.9,0.6,1.1,1c0.3,0.5,0.4,1,0.4,1.6v8.9c0,1.2,0,2.4,0.1,3.5c0,1.1,0.4,2.1,1,3L50.8,28.5z
				 M44.5,25.9c0.6,0.5,1.4,0.7,2.2,0.7c0.5,0,1.1-0.1,1.6-0.4c0.4-0.3,0.8-0.6,1.1-1c0.3-0.4,0.5-0.9,0.7-1.4
				c0.1-0.5,0.2-1.1,0.2-1.6v-4.1l-2.2,1.1c-0.8,0.4-1.4,0.7-2,1c-0.5,0.3-1,0.6-1.4,1c-0.4,0.3-0.7,0.7-0.9,1.1
				c-0.2,0.5-0.3,1-0.3,1.5C43.6,24.5,43.9,25.4,44.5,25.9z"/>
			<path id="Path_196" d="M60.9,15.3c0.4,0.6,1,1,1.5,1.4c0.6,0.4,1.3,0.8,2,1.2c0.7,0.4,1.4,0.8,2,1.2c0.6,0.5,1.1,1,1.5,1.6
				c0.4,0.7,0.7,1.5,0.6,2.3c0,0.9-0.2,1.8-0.6,2.5c-0.4,0.7-1,1.3-1.6,1.8c-0.7,0.5-1.5,0.9-2.3,1.1c-0.8,0.2-1.7,0.4-2.6,0.4
				c-0.8,0-1.5-0.1-2.3-0.2c-0.7-0.2-1.5-0.4-2.2-0.7c-0.2,0-0.4-0.1-0.5-0.3c-0.1-0.1-0.2-0.3-0.2-0.6c0-0.5,0-1,0.1-1.4
				c0.1-0.5,0.1-1,0.1-1.5c0.3,0.5,0.6,1,0.9,1.4c0.3,0.4,0.6,0.7,1,1c0.4,0.3,0.8,0.5,1.3,0.7c0.6,0.2,1.1,0.2,1.7,0.2
				c1,0.1,2-0.2,2.8-0.9c0.7-0.7,1.1-1.6,1-2.6c0-0.7-0.2-1.4-0.6-2c-0.4-0.6-0.9-1-1.4-1.4c-0.6-0.4-1.3-0.8-1.9-1.2
				c-0.7-0.3-1.3-0.8-1.9-1.2c-0.6-0.5-1.1-1-1.4-1.7c-0.4-0.8-0.6-1.6-0.6-2.5c-0.1-1.3,0.5-2.6,1.6-3.3c1.4-0.8,2.9-1.1,4.5-1
				c0.6,0,1.2,0,1.8,0.1c0.6,0.1,1.2,0.2,1.8,0.3c0.1,0,0.2,0.1,0.3,0.1c0.1,0,0.2,0.1,0.2,0.3c0,0.4,0,0.8,0,1.3c0,0.5,0,1-0.1,1.4
				c-0.3-0.4-0.7-0.8-1-1.2c-0.3-0.3-0.6-0.5-1-0.7c-0.3-0.2-0.6-0.3-1-0.4c-0.4-0.1-0.8-0.1-1.2-0.1c-0.7,0-1.5,0.2-2.1,0.6
				c-0.6,0.4-1,1.1-0.9,1.9C60.3,14,60.5,14.7,60.9,15.3z"/>
			<path id="Path_197" d="M86,23.9c0,0.8,0,1.5,0.1,2.3c0,0.7,0.2,1.4,0.6,2h-3.6V17.1c0-0.6,0-1.3-0.1-1.9
				c-0.1-0.6-0.2-1.2-0.5-1.7c-0.3-0.5-0.6-0.9-1.1-1.2c-0.6-0.4-1.2-0.5-1.9-0.5c-0.7,0-1.4,0.1-1.9,0.5c-0.5,0.3-0.9,0.8-1.1,1.3
				c-0.3,0.6-0.5,1.2-0.6,1.8c-0.1,0.7-0.1,1.4-0.1,2v6.5c0,0.8,0,1.5,0.1,2.3c0,0.7,0.3,1.4,0.7,2H72c0.4-0.6,0.6-1.3,0.6-2
				c0.1-0.8,0.1-1.6,0.1-2.3V4.7c0-0.8,0-1.6-0.1-2.3c-0.1-0.7-0.4-1.3-0.9-1.7l4-0.7v11.4c0,0.1,0,0.3,0,0.4c0,0.1,0.1,0.2,0.1,0.2
				s0.2-0.1,0.5-0.4c0.3-0.3,0.6-0.6,1-0.9c0.5-0.3,1-0.6,1.6-0.9c0.7-0.3,1.5-0.4,2.2-0.4c1.3-0.1,2.6,0.4,3.6,1.2
				c1,1.1,1.5,2.6,1.3,4L86,23.9L86,23.9z"/>
		</g>
		<g id="Group_83" transform="translate(81.745)">
			<path id="Path_198" class="st0" d="M0.4,0l33.9,4.4l-8,28.2L0.4,0z"/>
			<path id="Path_199" class="st0" d="M35.5,4.6l25.2,33.5L31.7,52l-3.6-14.7c0,0-1-5.4,0.5-9.5L35.5,4.6z"/>
			<path id="Path_200" class="st1" d="M61.7,37.8l-9.4-13.1L68.1,22L61.7,37.8z"/>
			<path id="Path_201" class="st1" d="M69.3,22l5.9,6.3h-8.6L69.3,22z"/>
			<path id="Path_202" class="st2" d="M36.7,51.1l24-11.9L59.9,42L36.7,51.1z"/>
			<path id="Path_203" class="st3" d="M26.3,35.5L16.2,69.3l15.3-12.1L26.3,35.5z"/>
			<path id="Path_204" class="st1" d="M13.5,18.1L3.8,5.6L0,5.8L13.5,18.1z"/>
			<path id="Path_205" class="st4" d="M27.8,35.4c0.1,1.1,0.2,1.9,0.2,1.9L31.6,52l29.1-13.9l-0.3-0.4L27.8,35.4z"/>
		</g>
	</g>
	<text transform="matrix(1 0 0 1 604.7864 72)" class="st5 st6 st7">Payment</text>
</g>
</svg>
