<svg xmlns="http://www.w3.org/2000/svg" viewBox="0 0 294.967 69.289">
  <defs>
    <style>
      .cls-1 {
        fill: #dd1954;
      }

      .cls-2 {
        fill: #b30000;
      }

      .cls-3 {
        fill: #e4170d;
      }

      .cls-4 {
        fill: #900;
      }

      .cls-5 {
        fill: #c00;
      }

      .cls-6 {
        fill: #e2136e;
        font-size: 31px;
        font-family: Georgia;
      }
    </style>
  </defs>
  <g id="logo" transform="translate(-433.033 -27)">
    <g id="Group_84" data-name="Group 84" transform="translate(433.033 27)">
      <g id="Group_82" data-name="Group 82" transform="translate(0 25.172)">
        <path id="Path_193" data-name="Path 193" d="M1.311,81.487a10.541,10.541,0,0,0-.262-2.327A2.977,2.977,0,0,0,0,77.456L4.261,76.8V89.386a.174.174,0,0,0,.2.2c.066,0,.262-.164.557-.492A12.737,12.737,0,0,1,6.162,88.01a8.174,8.174,0,0,1,1.672-1.082,4.949,4.949,0,0,1,2.229-.492,5.3,5.3,0,0,1,3.048.852,6.9,6.9,0,0,1,2,2.229A10.131,10.131,0,0,1,16.192,92.5a15.489,15.489,0,0,1,.328,3.212,14.638,14.638,0,0,1-.492,3.835,9.839,9.839,0,0,1-1.508,3.179,7.059,7.059,0,0,1-2.622,2.163,8.556,8.556,0,0,1-3.8.819,14.762,14.762,0,0,1-1.77-.1c-.524-.066-1.049-.131-1.573-.229s-1.082-.164-1.639-.229a17.3,17.3,0,0,0-1.934-.1c.033-1.7.066-3.376.1-5.048.033-1.7.033-3.376.033-5.08ZM13.045,93.778a9.4,9.4,0,0,0-.787-2.458,5.121,5.121,0,0,0-1.442-1.77,3.387,3.387,0,0,0-2.13-.688,3.776,3.776,0,0,0-3.278,1.672,8.12,8.12,0,0,0-1.147,4.589v3.114a16.967,16.967,0,0,0,.131,2.294,5.6,5.6,0,0,0,.524,1.9,3.251,3.251,0,0,0,1.213,1.278,4.193,4.193,0,0,0,2.2.492,4.022,4.022,0,0,0,2.491-.754,4.812,4.812,0,0,0,1.508-1.9,8.714,8.714,0,0,0,.754-2.524,18.685,18.685,0,0,0,.2-2.622A10.527,10.527,0,0,0,13.045,93.778Z" transform="translate(0 -76.8)"/>
        <path id="Path_194" data-name="Path 194" d="M63.585,89.877c0-.918-.033-1.835-.1-2.786a4.964,4.964,0,0,0-.787-2.458h5.375a4.964,4.964,0,0,0-.787,2.458c-.066.951-.1,1.868-.1,2.786v6.26a3.254,3.254,0,0,0,1.508-.688A11.644,11.644,0,0,0,70.3,94.072a20.556,20.556,0,0,0,1.606-1.737c.524-.623,1.049-1.246,1.573-1.835,1.082-1.278,1.967-2.327,2.589-3.179a3.745,3.745,0,0,0,.951-1.967v-.426a1.01,1.01,0,0,0-.033-.328H81.94c-.918.819-1.8,1.606-2.622,2.294a25.6,25.6,0,0,0-2.524,2.491L70.6,96.137l6.621,9.538a27.664,27.664,0,0,0,1.77,2.36c.623.787,1.278,1.54,1.868,2.229h-4.2a1.312,1.312,0,0,1-.885-.295,3.142,3.142,0,0,1-.623-.787L67.977,98.235c-.066-.131-.2-.262-.295-.426-.131-.131-.229-.229-.295-.229a.12.12,0,0,0-.131.131c0,.066-.033.164-.033.229v7.047c0,.918.033,1.835.1,2.786a5.2,5.2,0,0,0,.787,2.491H62.7a4.98,4.98,0,0,0,.787-2.491c.066-.951.1-1.868.1-2.786Z" transform="translate(-42.149 -82.043)"/>
        <path id="Path_195" data-name="Path 195" d="M133.454,125.012a10.162,10.162,0,0,1-.328-1.8q-.049-.688-.295-.688a.246.246,0,0,0-.164.033l-.066.066-.787,1.082a4.713,4.713,0,0,1-.918.885,3.655,3.655,0,0,1-1.246.59,6.828,6.828,0,0,1-1.77.229,5.842,5.842,0,0,1-3.54-1.114,4.02,4.02,0,0,1-1.442-3.343,3.518,3.518,0,0,1,.754-2.294,8.214,8.214,0,0,1,1.835-1.672,13.54,13.54,0,0,1,2.36-1.278c.852-.361,1.606-.721,2.262-1.016.557-.262,1.016-.492,1.409-.688a3.112,3.112,0,0,0,.885-.656,1.71,1.71,0,0,0,.426-.918,8.977,8.977,0,0,0,.131-1.54,4.472,4.472,0,0,0-.688-2.524,3.473,3.473,0,0,0-4.425-.459,4.454,4.454,0,0,0-.852,1.344,12.808,12.808,0,0,1-.656,1.344,1.41,1.41,0,0,1-1.311.59,1.582,1.582,0,0,1-1.082-.328,1.364,1.364,0,0,1-.393-1.082,2.3,2.3,0,0,1,.688-1.7,5.371,5.371,0,0,1,1.7-1.147,9.394,9.394,0,0,1,2.294-.623,15.758,15.758,0,0,1,2.425-.2,13.237,13.237,0,0,1,2.032.131,6.239,6.239,0,0,1,1.672.492,2.872,2.872,0,0,1,1.147,1.016,3.077,3.077,0,0,1,.426,1.606v8.882q0,1.819.1,3.54a5.43,5.43,0,0,0,1.016,2.983Zm-6.326-2.589a3.479,3.479,0,0,0,2.229.688,3.114,3.114,0,0,0,1.573-.393,3.774,3.774,0,0,0,1.147-1.016,4.9,4.9,0,0,0,.688-1.442,6.817,6.817,0,0,0,.229-1.639v-4.064l-2.163,1.082c-.754.361-1.409.721-1.967,1.016a7.022,7.022,0,0,0-1.409.951,2.99,2.99,0,0,0-.852,1.114,3.485,3.485,0,0,0-.295,1.475A2.509,2.509,0,0,0,127.128,122.423Z" transform="translate(-82.618 -96.496)"/>
        <path id="Path_196" data-name="Path 196" d="M176.623,111.8a7.233,7.233,0,0,0,1.54,1.442,16.9,16.9,0,0,0,2,1.18,13.68,13.68,0,0,1,2,1.246,6.647,6.647,0,0,1,1.54,1.639,4.045,4.045,0,0,1,.623,2.327,4.807,4.807,0,0,1-.623,2.524,5.745,5.745,0,0,1-1.639,1.8,7.041,7.041,0,0,1-2.294,1.082,9.631,9.631,0,0,1-2.557.361,10.181,10.181,0,0,1-2.262-.229,15.074,15.074,0,0,1-2.2-.656.9.9,0,0,1-.492-.295c-.131-.1-.164-.295-.164-.59,0-.492.033-.983.066-1.442.066-.492.1-.983.131-1.508.328.524.623.951.918,1.377a4.272,4.272,0,0,0,1.016,1.016,3.928,3.928,0,0,0,1.278.656,5.232,5.232,0,0,0,1.7.229,4.162,4.162,0,0,0,2.786-.852,3.243,3.243,0,0,0,.983-2.589,3.387,3.387,0,0,0-.59-2.032,6.026,6.026,0,0,0-1.442-1.442,13.784,13.784,0,0,0-1.934-1.18,11.2,11.2,0,0,1-1.9-1.245,5.555,5.555,0,0,1-1.442-1.7,4.751,4.751,0,0,1-.59-2.491,3.6,3.6,0,0,1,1.606-3.31,8.238,8.238,0,0,1,4.458-1.016,10.859,10.859,0,0,1,1.8.131c.59.1,1.213.2,1.8.328a1.524,1.524,0,0,0,.295.1.278.278,0,0,1,.229.262c0,.361,0,.819-.033,1.344,0,.524-.033.983-.066,1.409a14.4,14.4,0,0,0-1.049-1.18,3.838,3.838,0,0,0-.951-.721,3.976,3.976,0,0,0-.983-.361,6.726,6.726,0,0,0-1.213-.1,3.635,3.635,0,0,0-2.065.59,2.036,2.036,0,0,0-.918,1.868A3.4,3.4,0,0,0,176.623,111.8Z" transform="translate(-115.692 -96.497)"/>
        <path id="Path_197" data-name="Path 197" d="M233.023,100.661c0,.754.033,1.54.066,2.327a4.765,4.765,0,0,0,.557,2.032h-3.573V93.942a19.1,19.1,0,0,0-.1-1.934,4.869,4.869,0,0,0-.492-1.737,3.321,3.321,0,0,0-1.082-1.246,3.268,3.268,0,0,0-1.9-.492,3.38,3.38,0,0,0-1.934.492A3.593,3.593,0,0,0,223.42,90.3a5.239,5.239,0,0,0-.557,1.835,14.105,14.105,0,0,0-.131,2.032v6.49c0,.754.033,1.54.066,2.327a4.04,4.04,0,0,0,.656,2.032h-4.392a4.021,4.021,0,0,0,.623-2.032c.066-.787.066-1.573.066-2.327V81.487a17.467,17.467,0,0,0-.131-2.327,2.4,2.4,0,0,0-.918-1.7l4-.656V88.206a1.732,1.732,0,0,0,.033.426c0,.131.066.2.131.2s.229-.131.459-.393a7.047,7.047,0,0,1,.983-.852,8.051,8.051,0,0,1,1.606-.852,5.764,5.764,0,0,1,2.229-.393,5.055,5.055,0,0,1,3.605,1.213,5.279,5.279,0,0,1,1.311,4.032v9.079Z" transform="translate(-147.018 -76.8)"/>
      </g>
      <g id="Group_83" data-name="Group 83" transform="translate(81.745)">
        <path id="Path_198" data-name="Path 198" class="cls-1" d="M250.7,0l33.891,4.425-8.03,28.155Z" transform="translate(-250.274)"/>
        <path id="Path_199" data-name="Path 199" class="cls-1" d="M341.855,13.9,367.06,47.4l-29.073,13.93-3.605-14.749s-.951-5.375.524-9.505Z" transform="translate(-306.325 -9.344)"/>
        <path id="Path_200" data-name="Path 200" class="cls-2" d="M418.274,82.9,408.9,69.755,424.731,67.1Z" transform="translate(-356.622 -45.107)"/>
        <path id="Path_201" data-name="Path 201" class="cls-2" d="M455.355,67.1l5.9,6.293H452.7Z" transform="translate(-386.065 -45.107)"/>
        <path id="Path_202" data-name="Path 202" class="cls-3" d="M361.5,131.331,385.492,119.4l-.819,2.819Z" transform="translate(-324.758 -80.265)"/>
        <path id="Path_203" data-name="Path 203" class="cls-4" d="M308.962,108.4,298.9,142.16,314.174,130.1Z" transform="translate(-282.676 -72.87)"/>
        <path id="Path_204" data-name="Path 204" class="cls-2" d="M262.937,29.655,253.169,17.2l-3.769.131Z" transform="translate(-249.4 -11.562)"/>
        <path id="Path_205" data-name="Path 205" class="cls-5" d="M334.2,108c.1,1.114.229,1.868.229,1.868l3.605,14.749,29.073-13.93-.262-.361Z" transform="translate(-306.406 -72.601)"/>
      </g>
    </g>
    <text id="Paymnet" class="cls-6" transform="translate(667 72)"><tspan x="-60.547" y="0">Paymnet</tspan></text>
  </g>
</svg>
